<?xml version="1.0" standalone="no"?>
<!DOCTYPE svg PUBLIC "-//W3C//DTD SVG 20010904//EN"
 "http://www.w3.org/TR/2001/REC-SVG-20010904/DTD/svg10.dtd">
<svg version="1.0" xmlns="http://www.w3.org/2000/svg"
 width="640.000000pt" height="640.000000pt" viewBox="0 0 640.000000 640.000000"
 preserveAspectRatio="xMidYMid meet">

<g transform="translate(0.000000,640.000000) scale(0.100000,-0.100000)"
fill="#000000" stroke="none">
<path d="M3416 4719 c2 -4 -12 -6 -31 -4 -19 2 -35 -1 -35 -6 0 -5 -14 -9 -31
-9 -28 0 -30 -2 -18 -17 12 -15 12 -16 -3 -10 -10 3 -18 3 -18 -2 0 -4 -19
-16 -41 -27 -54 -24 -86 -75 -94 -150 -9 -78 28 -183 81 -231 32 -29 43 -33
95 -33 104 0 205 56 302 166 37 43 46 111 21 149 -10 15 -19 34 -20 42 -2 8
-10 23 -20 34 -9 10 -14 19 -10 19 4 0 -13 16 -38 35 -26 19 -50 35 -54 35 -4
0 0 -5 8 -10 13 -8 12 -10 -2 -10 -10 0 -18 5 -18 10 0 6 -12 10 -26 10 -14 0
-23 4 -20 8 2 4 -4 8 -14 8 -10 0 -17 -3 -14 -7z m76 -160 c48 -12 64 -35 18
-26 -18 4 -49 7 -69 7 -21 0 -46 9 -61 21 l-25 20 50 -6 c28 -3 67 -11 87 -16z"/>
<path d="M4143 4615 c0 -8 4 -12 9 -9 5 3 6 10 3 15 -9 13 -12 11 -12 -6z"/>
<path d="M2214 4378 c-5 -7 -3 -8 6 -3 9 5 11 4 6 -3 -5 -8 -13 -9 -25 -2 -19
10 -31 4 -31 -14 0 -6 5 -4 10 4 6 9 10 10 10 3 0 -16 -17 -26 -25 -14 -7 12
-44 10 -42 -2 1 -5 -4 -12 -12 -15 -9 -3 -11 0 -6 8 5 9 4 11 -4 6 -9 -6 -9
-11 0 -22 9 -12 9 -18 0 -27 -9 -9 -14 -9 -20 1 -7 11 -10 10 -14 -3 -4 -9 -3
-13 3 -10 5 3 8 -4 7 -15 -1 -14 -6 -19 -17 -15 -9 3 -8 -1 4 -10 11 -8 15
-15 9 -15 -24 0 -102 -83 -127 -135 -41 -86 -31 -142 40 -218 54 -58 104 -72
196 -52 86 18 116 34 164 89 62 71 78 97 96 156 20 62 22 107 8 144 -6 16 -6
28 0 31 5 3 -7 28 -26 55 -20 28 -40 47 -46 44 -5 -3 -20 4 -34 17 -24 23 -35
14 -11 -10 10 -11 8 -11 -10 0 -12 7 -20 16 -18 20 3 3 -6 4 -19 2 -13 -3 -33
0 -44 6 -15 8 -23 8 -28 -1z m-59 -49 c-4 -5 -12 -9 -18 -8 -9 0 -8 2 1 6 6 2
9 10 6 15 -4 7 -2 8 5 4 6 -4 9 -12 6 -17z m256 -26 c13 -16 12 -17 -3 -4 -10
7 -18 15 -18 17 0 8 8 3 21 -13z m30 -40 c13 -16 12 -17 -3 -4 -10 7 -18 15
-18 17 0 8 8 3 21 -13z m-158 -69 c-8 -25 -17 -43 -20 -41 -7 7 19 87 28 87 4
0 1 -20 -8 -46z"/>
<path d="M4329 4022 c10 -7 2 -11 -30 -16 -24 -3 -49 -7 -56 -8 -7 -1 -10 -5
-7 -10 3 -4 0 -8 -5 -8 -6 0 -14 -1 -18 -1 -13 -3 -53 -67 -53 -84 0 -9 -4
-13 -10 -10 -5 3 -10 1 -10 -6 0 -7 -10 -26 -23 -43 -32 -42 -57 -109 -57
-151 0 -71 49 -151 119 -192 65 -39 163 -39 237 -1 45 24 54 34 70 78 18 51
28 60 38 38 3 -7 4 -1 1 13 -4 21 1 31 20 43 14 9 23 21 20 26 -4 6 -2 10 2
10 5 0 9 10 10 21 2 21 1 21 -13 3 -14 -18 -14 -17 -4 5 7 12 10 32 7 42 -3
10 -1 22 4 25 6 3 6 11 1 17 -5 7 -15 28 -22 47 -15 35 -24 48 -75 101 -16 17
-29 36 -27 42 2 6 -4 4 -13 -3 -8 -7 -19 -10 -22 -6 -4 4 -2 11 5 15 8 4 -3 8
-25 8 -21 0 -47 3 -58 8 -14 5 -16 4 -6 -3z m75 -124 c9 -36 7 -126 -3 -108
-13 23 -24 130 -13 130 5 0 12 -10 16 -22z"/>
<path d="M2555 3923 c-63 -26 -115 -62 -177 -121 -61 -58 -71 -87 -42 -116 26
-26 50 -19 111 35 32 29 82 63 112 77 46 21 63 24 121 19 51 -4 73 -2 89 9 27
20 28 65 0 90 -29 26 -158 31 -214 7z"/>
<path d="M3516 3916 c-29 -28 -33 -53 -12 -82 12 -16 27 -19 98 -19 99 0 131
-13 218 -91 66 -59 75 -62 108 -38 39 27 28 59 -40 125 -88 84 -171 123 -270
128 -71 3 -79 1 -102 -23z"/>
<path d="M1335 3740 c3 -19 2 -30 -3 -25 -9 13 -35 18 -28 6 4 -5 -7 -37 -23
-71 -41 -84 -58 -144 -62 -220 -5 -110 -3 -144 9 -148 7 -2 10 -8 6 -13 -3 -5
0 -9 6 -9 40 0 74 53 105 164 18 60 36 253 26 271 -3 6 -4 19 -3 30 2 17 1 18
-8 5 -10 -12 -11 -11 -7 8 3 12 1 20 -3 17 -5 -3 -11 1 -14 7 -4 7 -4 -3 -1
-22z"/>
<path d="M1615 3746 c-19 -29 -8 -60 24 -69 36 -9 63 50 36 77 -23 23 -42 20
-60 -8z"/>
<path d="M1391 3664 c0 -11 3 -14 6 -6 3 7 2 16 -1 19 -3 4 -6 -2 -5 -13z"/>
<path d="M1381 3614 c0 -11 3 -14 6 -6 3 7 2 16 -1 19 -3 4 -6 -2 -5 -13z"/>
<path d="M5093 3603 c-17 -6 -17 -80 2 -185 18 -103 56 -230 71 -235 19 -6 74
111 74 157 0 45 -16 73 -81 144 -37 39 -44 54 -40 84 3 19 -13 40 -26 35z m57
-123 c0 -5 -2 -10 -4 -10 -3 0 -8 5 -11 10 -3 6 -1 10 4 10 6 0 11 -4 11 -10z"/>
<path d="M2439 3470 c-43 -23 -86 -71 -106 -119 -15 -35 -16 -181 -1 -181 4 0
5 -7 1 -15 -3 -10 -1 -15 7 -13 6 2 19 -8 28 -22 l16 -25 -22 19 c-20 17 -22
18 -16 3 3 -10 21 -25 38 -34 17 -9 38 -23 46 -32 14 -16 100 -25 100 -10 0 3
19 11 41 18 124 37 201 163 170 277 -14 52 -65 112 -115 135 -54 25 -140 24
-187 -1z m237 -107 c14 -55 -66 -79 -86 -27 -12 30 -3 54 24 64 28 10 54 -5
62 -37z"/>
<path d="M3622 3462 c-86 -57 -129 -161 -101 -244 7 -24 13 -49 12 -55 0 -7 3
-10 8 -7 8 5 13 -9 10 -28 0 -5 3 -8 7 -8 15 0 52 -37 45 -44 -4 -4 1 -4 11 0
15 6 17 4 11 -6 -6 -10 -4 -12 8 -7 10 3 17 3 17 -2 0 -4 27 -9 60 -10 68 -2
118 19 169 70 86 85 92 194 16 293 -60 79 -193 102 -273 48z m236 -68 c12 -8
22 -25 22 -36 0 -25 -27 -58 -47 -58 -18 0 -53 36 -53 55 0 16 34 55 48 55 4
0 18 -7 30 -16z"/>
<path d="M1191 3334 c0 -11 3 -14 6 -6 3 7 2 16 -1 19 -3 4 -6 -2 -5 -13z"/>
<path d="M1344 3325 c-4 -8 -10 -12 -15 -9 -5 3 -6 -2 -3 -11 7 -18 7 -18 23
13 6 12 9 22 6 22 -3 0 -8 -7 -11 -15z"/>
<path d="M4677 3295 c-19 -18 -16 -45 6 -59 21 -14 67 8 67 32 0 39 -45 56
-73 27z"/>
<path d="M1307 3274 c-4 -4 -7 -17 -7 -29 0 -23 -35 -45 -70 -45 -11 0 -20 -6
-20 -14 0 -7 -5 -70 -10 -139 -10 -119 -9 -129 12 -184 12 -32 23 -80 24 -108
1 -27 5 -57 9 -66 3 -9 -1 -21 -9 -28 -10 -9 -12 -19 -5 -39 5 -15 11 -44 14
-64 3 -21 11 -38 17 -38 6 0 8 -12 5 -32 -3 -18 -3 -27 0 -20 2 6 11 12 19 12
10 0 14 -15 14 -60 0 -40 -4 -60 -12 -60 -9 0 -9 -3 -1 -11 9 -9 16 -7 29 6
21 21 30 5 14 -24 -13 -25 -7 -27 14 -5 14 14 15 11 12 -25 -2 -22 -7 -44 -11
-50 -3 -7 0 -8 9 -5 9 3 13 11 9 17 -4 6 -1 7 6 2 7 -4 11 -16 8 -26 -3 -10
-1 -22 4 -25 5 -3 9 -14 9 -25 0 -10 7 -19 15 -19 8 0 17 -11 21 -25 3 -14 10
-22 15 -19 5 3 9 -6 9 -20 0 -32 -17 -43 -23 -14 l-4 23 -2 -23 c0 -13 -5 -20
-11 -17 -6 3 -7 -1 -3 -10 4 -12 8 -13 13 -4 6 8 16 4 36 -17 16 -16 32 -29
36 -29 11 0 41 -45 34 -52 -3 -3 -11 6 -17 21 -9 19 -15 23 -21 14 -4 -7 -8
-17 -8 -23 0 -5 5 -3 10 5 7 11 10 11 10 2 0 -7 11 -24 25 -38 21 -21 23 -29
14 -40 -8 -9 -8 -14 -1 -14 6 0 15 8 21 18 7 13 9 7 7 -24 -2 -23 -7 -47 -10
-53 -5 -7 -2 -10 6 -9 7 2 13 -5 13 -14 0 -10 9 -25 20 -33 11 -9 14 -13 6 -9
-9 4 -12 3 -8 -3 4 -6 20 -9 36 -7 17 2 33 -1 36 -6 4 -6 -1 -7 -12 -3 -15 5
-14 2 5 -19 12 -13 22 -27 22 -31 0 -4 -14 7 -31 25 -17 19 -26 25 -21 13 16
-32 55 -63 79 -60 18 1 21 -3 18 -26 -3 -19 4 -33 23 -50 20 -19 23 -19 12 -4
-14 18 -14 19 2 7 9 -8 22 -11 28 -7 5 3 19 0 30 -8 18 -13 19 -16 5 -27 -13
-11 -18 -11 -28 0 -10 10 -9 12 6 7 9 -4 17 -2 17 3 0 15 -21 23 -32 12 -16
-16 11 -45 35 -38 13 3 17 0 13 -10 -7 -18 25 -35 45 -24 25 14 42 -4 18 -19
-16 -9 -19 -9 -14 0 6 8 4 10 -4 5 -17 -11 3 -31 98 -100 49 -35 85 -54 94
-50 9 3 26 -1 39 -10 12 -9 18 -16 12 -16 -5 0 -15 5 -21 11 -6 6 -17 9 -24 7
-15 -5 128 -91 241 -145 271 -128 455 -173 714 -173 83 -1 198 -5 256 -10 135
-11 332 12 465 53 6 2 37 9 69 16 43 10 55 16 45 23 -10 7 -6 8 14 5 18 -3 46
4 74 19 26 13 49 21 53 19 4 -2 6 19 5 47 -2 73 30 110 62 71 8 -10 12 -12 8
-5 -8 16 4 15 38 -2 30 -16 38 -4 10 14 -17 11 -17 11 0 6 10 -3 23 -6 28 -6
6 0 8 -4 5 -9 -4 -5 3 -7 15 -4 15 4 17 8 7 14 -18 11 1 28 35 31 24 2 25 3
10 20 -18 20 -15 22 21 8 20 -7 24 -6 19 5 -3 8 -11 15 -19 15 -8 0 -14 5 -14
10 0 7 6 7 19 0 11 -5 28 -10 38 -9 11 0 13 3 5 6 -17 7 4 33 27 33 13 0 13 2
2 9 -9 6 -10 11 -2 15 6 4 9 12 5 17 -4 7 9 9 32 7 31 -2 39 -7 39 -22 0 -11
7 -21 15 -23 13 -4 13 -3 0 6 -13 9 -12 12 5 25 19 14 19 14 1 13 -10 -1 -21
4 -23 11 -3 7 4 12 16 12 11 0 23 4 26 10 3 5 1 10 -6 10 -9 0 -8 4 1 15 10
11 9 18 -3 30 -18 17 -37 20 -37 5 0 -5 -11 -10 -25 -10 -18 0 -25 -5 -25 -19
0 -10 -7 -21 -15 -25 -8 -3 -15 -16 -15 -28 0 -18 -9 -26 -42 -36 -58 -18 -89
-39 -82 -56 4 -11 0 -13 -16 -9 -16 4 -18 8 -8 14 8 5 -14 8 -54 6 -36 -1 -64
-5 -61 -9 2 -5 1 -8 -4 -9 -4 0 -17 -2 -27 -4 -11 -2 -27 5 -37 16 -12 15 -18
16 -22 7 -4 -10 -8 -10 -15 1 -9 12 -13 12 -26 2 -10 -8 -16 -9 -16 -3 0 6
-13 10 -29 10 -15 -1 -33 2 -40 6 -6 4 -11 1 -11 -8 0 -9 -4 -16 -10 -16 -5 0
-10 7 -10 15 0 8 -4 15 -10 15 -5 0 -10 -7 -10 -15 0 -8 -4 -15 -10 -15 -5 0
-10 8 -10 18 0 13 -2 14 -9 3 -5 -7 -6 -22 -3 -33 4 -17 1 -19 -15 -14 -15 5
-27 -1 -47 -24 -23 -28 -26 -29 -26 -11 0 12 -4 21 -10 21 -5 0 -10 -9 -10
-20 0 -11 -4 -20 -10 -20 -5 0 -10 9 -10 20 0 11 -4 20 -10 20 -5 0 -10 -10
-10 -22 0 -13 -3 -18 -8 -12 -4 6 -24 14 -46 18 -33 6 -38 5 -33 -8 4 -9 2
-16 -3 -16 -5 0 -11 19 -13 43 l-4 42 -1 -42 c-2 -47 -22 -60 -22 -15 0 15 -5
34 -11 42 -8 11 -9 5 -4 -23 7 -41 -1 -77 -16 -77 -6 0 -7 15 -3 36 l7 36 -41
-21 c-48 -24 -63 -26 -56 -7 4 12 -21 25 -48 26 -13 0 -9 -28 5 -33 6 -3 2 -6
-10 -6 -19 -1 -23 4 -23 32 -1 26 -2 29 -11 15 -13 -23 -48 -23 -56 -1 -5 14
-8 13 -14 -5 -5 -12 -13 -22 -19 -22 -13 0 -13 17 1 25 6 4 7 19 4 36 -6 28
-5 29 24 23 22 -5 32 -2 37 9 3 8 15 18 27 21 12 3 49 31 82 61 38 35 66 54
78 51 10 -2 14 0 10 7 -4 6 2 8 16 4 32 -8 51 2 51 27 0 15 3 17 9 7 11 -17
19 -5 42 59 19 54 25 170 10 170 -6 0 -11 7 -11 15 0 16 -12 34 -42 63 -10 9
-18 22 -18 28 0 6 -15 23 -32 37 -18 13 -46 36 -62 50 -17 14 -52 31 -79 38
-55 13 -166 5 -200 -14 -26 -15 -67 -57 -67 -68 0 -5 -6 -9 -13 -9 -8 0 -14
-6 -15 -12 -12 -98 -18 -397 -9 -438 3 -14 6 -30 6 -37 1 -7 10 -21 22 -31 17
-17 18 -20 5 -25 -24 -9 -19 -24 12 -35 15 -6 21 -11 13 -11 -8 -1 -23 -8 -33
-18 -23 -21 -24 -10 -1 13 17 16 16 17 -10 12 -21 -4 -27 -1 -27 13 0 21 -27
16 -46 -8 -10 -11 -13 -11 -24 2 -7 8 -18 15 -25 15 -7 0 -19 10 -27 21 -13
21 -14 20 -14 -14 0 -24 4 -33 13 -30 7 3 13 1 13 -5 0 -6 3 -19 6 -29 5 -16
4 -16 -8 -2 -7 8 -21 18 -30 22 -20 7 -23 22 -8 32 13 8 13 25 1 25 -5 0 -12
-13 -16 -29 -5 -22 -12 -29 -31 -28 -13 0 -24 3 -24 8 0 5 -5 9 -10 9 -6 0 -8
-15 -4 -40 4 -27 3 -40 -5 -40 -6 0 -11 5 -11 11 0 7 -11 9 -26 6 -14 -2 -37
1 -51 8 -23 12 -24 14 -6 23 17 10 17 11 1 17 -10 4 -15 12 -12 17 4 6 1 8 -7
6 -8 -3 -13 -11 -11 -17 1 -7 -2 -10 -7 -6 -6 3 -8 13 -5 23 4 12 0 11 -14 -5
-25 -29 -35 -29 -27 -3 12 36 -12 51 -77 49 -66 -3 -90 16 -82 61 2 14 1 18
-3 10 -11 -26 -31 -40 -55 -39 l-23 1 24 7 c45 12 36 30 -10 20 -45 -10 -67
-6 -24 5 30 8 34 26 5 26 -11 0 -29 9 -40 20 -12 12 -26 18 -31 14 -7 -4 -9 1
-4 15 8 26 -3 27 -21 3 -9 -11 -13 -13 -14 -4 0 9 -7 11 -19 7 -13 -4 -26 3
-41 22 -12 15 -24 27 -26 26 -2 -2 -10 -3 -16 -3 -8 1 -6 6 5 14 9 7 17 17 17
21 0 8 -63 2 -110 -10 -23 -6 -24 -5 -7 8 15 13 15 16 2 27 -8 7 -22 10 -30 6
-8 -3 -15 -1 -15 4 0 6 19 10 43 11 l42 1 -33 8 c-18 4 -43 17 -56 29 -12 11
-30 21 -39 21 -9 0 -17 3 -17 8 0 4 -14 16 -30 27 -16 11 -30 24 -30 29 0 5 7
3 15 -4 9 -7 18 -10 22 -6 8 7 -26 35 -44 36 -17 0 -34 35 -27 57 5 14 4 15
-4 4 -8 -11 -12 -10 -21 8 -7 11 -8 21 -4 21 4 0 0 5 -10 11 -17 10 -17 12 -2
23 14 10 14 13 -3 31 -10 11 -19 23 -20 28 -1 4 -5 7 -9 6 -3 0 -11 7 -16 17
-7 13 -5 21 9 32 17 13 16 14 -18 9 -21 -3 -38 -2 -38 3 0 5 -7 7 -15 4 -8 -4
-15 -1 -15 5 0 6 9 11 19 11 11 0 23 5 26 10 4 6 -5 10 -19 10 -19 0 -26 5
-26 20 0 11 -4 20 -9 20 -15 0 -40 74 -28 82 7 4 0 12 -16 19 -15 7 -27 16
-27 21 0 10 51 81 62 86 4 2 27 19 51 37 25 19 47 31 51 28 3 -4 6 -1 6 5 0 6
17 19 38 28 37 18 118 78 159 120 19 19 23 35 24 102 2 66 -1 86 -20 117 -27
47 -21 55 18 22 46 -38 214 -68 261 -46 8 4 34 12 58 19 62 16 118 70 126 121
9 53 -25 114 -85 153 -35 24 -56 29 -125 34 -49 3 -102 0 -131 -7 -50 -13
-133 -59 -133 -75 0 -5 -8 -18 -17 -28 -11 -12 -18 -37 -18 -64 -1 -24 -5 -47
-10 -51 -4 -5 -5 -3 -2 3 16 28 -144 143 -180 130 -9 -4 -26 0 -39 9 -12 8
-24 11 -26 6 -2 -5 -19 -11 -38 -12 -19 -2 -40 -11 -47 -19 -7 -8 -13 -12 -13
-8 0 4 -16 -1 -35 -12 -20 -11 -45 -20 -57 -20 -21 0 -21 0 -2 -14 18 -14 18
-15 -10 -38 -17 -12 -37 -26 -45 -30 -13 -6 -12 -7 4 -7 35 2 36 0 15 -23
l-21 -22 23 -9 c18 -6 20 -10 8 -17 -11 -7 -12 -13 -2 -35 16 -35 15 -53 -3
-71 -8 -9 -15 -21 -15 -27 0 -8 3 -7 9 1 10 17 22 -34 13 -57 -4 -12 -7 -11
-14 5 -5 12 -7 2 -4 -29 3 -40 1 -47 -13 -45 -10 2 -15 11 -13 27 6 40 -7 71
-28 71 -11 0 -20 5 -20 10 0 6 6 10 14 10 15 0 18 50 4 61 -4 3 -3 20 2 39 8
26 6 37 -5 50 -19 21 -19 30 0 30 23 0 18 30 -7 39 -20 8 -21 10 -5 16 9 4 17
16 17 26 0 21 -16 26 -23 7 -4 -9 -6 -10 -6 -1 -1 6 6 18 14 27 9 9 11 17 5
21 -5 3 -10 1 -10 -4 0 -6 -5 -11 -10 -11 -6 0 -10 27 -10 63 0 34 -1 91 -1
127 -1 40 3 66 10 68 17 6 13 20 -6 18 -10 0 -19 9 -22 22 -4 13 -9 20 -14 16z
m551 -561 c-15 -2 -42 -2 -60 0 -18 2 -6 4 27 4 33 0 48 -2 33 -4z m-588 -83
c0 -5 -2 -10 -4 -10 -3 0 -8 5 -11 10 -3 6 -1 10 4 10 6 0 11 -4 11 -10z m120
-22 c0 -16 -3 -19 -11 -11 -6 6 -8 16 -5 22 11 17 16 13 16 -11z m-133 -40
c-3 -7 -5 -2 -5 12 0 14 2 19 5 13 2 -7 2 -19 0 -25z m483 -538 c0 -5 -7 -10
-15 -10 -8 0 -15 5 -15 10 0 6 7 10 15 10 8 0 15 -4 15 -10z m0 -40 c0 -5 -2
-10 -4 -10 -3 0 -8 5 -11 10 -3 6 -1 10 4 10 6 0 11 -4 11 -10z m21 -17 c-12
-20 -14 -14 -5 12 4 9 9 14 11 11 3 -2 0 -13 -6 -23z m-173 -131 c-5 -2 -3
-10 3 -18 9 -12 9 -18 0 -27 -10 -9 -11 -8 -6 4 4 10 2 20 -3 23 -5 3 -7 18
-4 33 5 24 6 25 12 8 4 -11 3 -22 -2 -23z m1682 2 c0 -8 -4 -14 -10 -14 -5 0
-10 9 -10 21 0 11 5 17 10 14 6 -3 10 -13 10 -21z m-1516 -209 c-4 -8 -11 -12
-16 -9 -6 4 -5 10 3 15 19 12 19 11 13 -6z m157 -172 c13 -16 12 -17 -3 -4
-10 7 -18 15 -18 17 0 8 8 3 21 -13z m103 -72 c-2 -3 -12 3 -22 13 -16 17 -16
18 5 5 12 -7 20 -15 17 -18z m570 -10 c3 -5 -1 -14 -9 -21 -13 -10 -15 -9 -15
9 0 21 14 28 24 12z m-429 -31 c-3 -5 -12 -10 -18 -10 -7 0 -6 4 3 10 19 12
23 12 15 0z m779 -6 c9 -24 2 -26 -12 -4 -7 11 -8 20 -3 20 5 0 12 -7 15 -16z
m187 -7 c-10 -9 -11 -8 -5 6 3 10 9 15 12 12 3 -3 0 -11 -7 -18z m49 8 c0 -8
-4 -15 -10 -15 -5 0 -10 7 -10 15 0 8 5 15 10 15 6 0 10 -7 10 -15z m-580 -30
c0 -8 -4 -15 -10 -15 -5 0 -10 7 -10 15 0 8 5 15 10 15 6 0 10 -7 10 -15z m40
0 c0 -8 -4 -15 -10 -15 -5 0 -10 7 -10 15 0 8 5 15 10 15 6 0 10 -7 10 -15z
m1550 -15 c0 -5 -4 -10 -10 -10 -5 0 -10 5 -10 10 0 6 5 10 10 10 6 0 10 -4
10 -10z m-1890 -44 c0 -2 -7 -7 -16 -10 -8 -3 -12 -2 -9 4 6 10 25 14 25 6z
m560 -16 c0 -5 -4 -10 -10 -10 -5 0 -10 5 -10 10 0 6 5 10 10 10 6 0 10 -4 10
-10z m1150 -27 c0 -15 -16 -17 -25 -3 -10 15 -35 12 -35 -5 0 -10 10 -15 34
-15 27 0 34 -4 32 -17 -2 -10 -11 -20 -22 -22 -10 -2 -31 -12 -46 -22 -35 -25
-47 -24 -17 2 20 17 21 22 9 30 -11 7 -5 8 20 4 l35 -6 -32 17 c-31 16 -41 33
-26 47 11 12 73 3 73 -10z m-1143 -9 c-3 -3 -12 -4 -19 -1 -8 3 -5 6 6 6 11 1
17 -2 13 -5z"/>
<path d="M1181 3244 c0 -11 3 -14 6 -6 3 7 2 16 -1 19 -3 4 -6 -2 -5 -13z"/>
<path d="M1191 3174 c0 -11 3 -14 6 -6 3 7 2 16 -1 19 -3 4 -6 -2 -5 -13z"/>
<path d="M4015 3103 c-33 -7 -95 -36 -95 -44 0 -4 -8 -10 -18 -13 -25 -8 -52
-68 -52 -116 0 -85 108 -152 242 -151 104 1 152 17 210 71 47 43 51 50 51 92
0 61 -29 99 -105 137 -53 27 -71 31 -137 30 -42 -1 -85 -3 -96 -6z"/>
<path d="M1172 3075 c0 -16 2 -22 5 -12 2 9 2 23 0 30 -3 6 -5 -1 -5 -18z"/>
<path d="M2866 2874 c-8 -22 27 -86 69 -122 58 -52 94 -65 181 -70 72 -4 89
-1 136 21 88 40 161 128 144 172 -9 25 -33 17 -55 -19 -46 -74 -146 -123 -231
-113 -68 8 -122 38 -171 97 -44 52 -63 61 -73 34z"/>
<path d="M4441 2748 c-51 -22 -134 -96 -139 -124 -2 -10 -8 -24 -13 -30 -4 -6
-14 -54 -20 -107 -14 -111 -4 -151 56 -230 41 -54 85 -82 141 -91 35 -5 47 -2
80 23 59 43 81 66 111 118 41 72 50 79 72 59 14 -13 21 -14 27 -5 5 8 3 10 -6
4 -10 -6 -12 -4 -7 9 4 10 3 15 -3 11 -6 -3 -10 -1 -10 6 0 6 8 9 20 6 10 -3
19 -2 18 2 -4 35 4 71 17 71 8 0 15 7 15 16 0 8 -5 12 -11 8 -8 -4 -9 3 -4 24
3 17 2 33 -4 36 -6 4 -8 13 -5 20 3 8 1 17 -5 21 -6 3 -11 15 -11 26 0 10 -4
19 -10 19 -5 0 -9 3 -8 8 4 11 -54 72 -69 72 -7 0 -16 7 -19 15 -15 37 -138
45 -213 13z m149 -133 c0 -8 -4 -15 -10 -15 -5 0 -10 7 -10 15 0 8 5 15 10 15
6 0 10 -7 10 -15z"/>
<path d="M3705 2500 c3 -5 -3 -10 -14 -10 -11 0 -28 -11 -37 -25 -9 -14 -23
-25 -30 -25 -8 0 -14 -9 -14 -19 0 -11 -6 -26 -13 -33 -7 -7 -13 -22 -14 -33
-1 -11 -6 -55 -11 -98 -7 -59 -7 -90 3 -128 7 -27 11 -49 9 -49 -2 0 5 -18 16
-40 11 -21 20 -45 20 -53 0 -17 99 -107 118 -107 22 0 56 24 113 80 31 30 65
62 75 71 11 9 32 33 47 53 16 20 32 34 36 32 5 -3 13 6 19 19 7 14 18 25 27
25 9 0 15 9 15 25 0 14 5 25 10 25 14 0 12 84 -2 98 -7 7 -9 12 -4 12 4 0 0 7
-9 16 -9 9 -14 23 -11 31 3 7 -1 16 -9 19 -8 4 -15 11 -15 18 0 14 -64 67
-107 89 -37 19 -229 25 -218 7z m150 -221 c-3 -4 -12 -6 -20 -3 -8 4 -13 10
-10 15 3 4 12 6 20 3 8 -4 13 -10 10 -15z m222 -1 c-3 -8 -6 -5 -6 6 -1 11 2
17 5 13 3 -3 4 -12 1 -19z"/>
<path d="M5110 2438 c-11 -18 -20 -37 -20 -41 0 -5 -4 -5 -10 -2 -6 4 -7 -1
-3 -11 4 -11 2 -15 -4 -11 -6 4 -11 1 -10 -6 1 -31 -4 -48 -12 -43 -5 3 -8 0
-8 -7 1 -6 -8 -41 -20 -77 -11 -36 -24 -81 -28 -100 l-7 -35 36 40 c33 38 96
151 96 175 0 6 9 36 20 66 17 49 17 58 5 71 -13 12 -17 10 -35 -19z"/>
<path d="M2090 2355 c-45 -17 -110 -55 -110 -65 0 -4 -10 -10 -22 -13 -17 -5
-19 -9 -10 -20 15 -18 4 -60 -14 -53 -8 3 -14 1 -14 -3 0 -5 4 -11 8 -13 5 -1
12 -19 15 -38 5 -22 4 -30 -2 -21 -6 9 -9 -16 -10 -71 -1 -76 2 -91 31 -148
33 -67 78 -116 116 -126 12 -3 22 -11 22 -16 0 -5 20 -7 48 -5 57 6 92 17 92
28 0 8 68 25 84 21 4 -2 14 2 21 8 8 6 21 10 30 8 10 -2 22 6 29 17 6 11 17
24 24 28 6 4 12 16 12 27 0 10 6 25 14 33 11 10 12 17 4 25 -8 8 -8 15 2 27 7
8 9 15 4 15 -5 0 -10 37 -11 83 -2 59 -7 85 -18 93 -8 6 -15 20 -15 30 0 10
-9 30 -20 44 -11 14 -20 28 -20 32 0 14 -48 58 -62 58 -8 0 -18 4 -24 10 -16
16 -164 19 -204 5z m110 -215 c0 -5 -4 -10 -10 -10 -5 0 -10 5 -10 10 0 6 5
10 10 10 6 0 10 -4 10 -10z"/>
<path d="M1336 2295 c-3 -9 -6 -22 -5 -28 0 -7 5 -1 10 12 5 13 8 26 5 28 -2
2 -6 -3 -10 -12z"/>
<path d="M1340 2206 c0 -8 4 -17 9 -20 5 -4 7 3 4 14 -6 23 -13 26 -13 6z"/>
<path d="M1400 2134 c0 -8 5 -12 10 -9 6 4 8 11 5 16 -9 14 -15 11 -15 -7z"/>
<path d="M4097 1741 c-48 -26 -96 -75 -97 -98 0 -7 -5 -13 -11 -13 -18 0 -2
-63 19 -74 9 -5 43 -11 75 -12 32 -1 65 -8 73 -15 12 -10 22 -10 50 0 19 7 43
10 53 6 11 -3 22 -1 25 4 4 6 13 8 21 4 9 -3 15 1 15 10 0 8 6 20 13 26 18 15
18 90 0 121 -21 37 -55 50 -160 64 -17 2 -47 -7 -76 -23z"/>
<path d="M4646 1614 c-9 -24 -2 -26 12 -4 7 11 8 20 3 20 -5 0 -12 -7 -15 -16z"/>
<path d="M2400 1580 c0 -5 5 -10 10 -10 6 0 10 5 10 10 0 6 -4 10 -10 10 -5 0
-10 -4 -10 -10z"/>
<path d="M2322 1528 c3 -7 15 -14 29 -15 14 -1 17 0 7 3 -10 3 -18 10 -18 15
0 5 -5 9 -11 9 -6 0 -9 -6 -7 -12z"/>
<path d="M2545 1530 c-3 -6 1 -13 10 -16 21 -9 26 -2 10 13 -9 8 -16 9 -20 3z"/>
<path d="M2450 1522 c0 -4 9 -8 19 -8 11 0 17 4 15 8 -3 4 -12 8 -20 8 -8 0
-14 -4 -14 -8z"/>
<path d="M2770 1510 c0 -5 5 -10 10 -10 6 0 10 5 10 10 0 6 -4 10 -10 10 -5 0
-10 -4 -10 -10z"/>
<path d="M4470 1505 c0 -8 2 -15 4 -15 2 0 6 7 10 15 3 8 1 15 -4 15 -6 0 -10
-7 -10 -15z"/>
<path d="M2470 1489 c0 -17 26 -57 33 -49 2 3 -4 19 -14 35 -11 17 -19 23 -19
14z"/>
<path d="M2498 1493 c6 -2 12 -9 12 -15 0 -13 26 -38 40 -38 6 0 -1 14 -17 30
-15 17 -32 30 -38 29 -5 0 -4 -3 3 -6z"/>
<path d="M2630 1496 c0 -16 25 -56 38 -61 13 -5 13 -3 -1 13 -9 10 -17 24 -17
30 0 6 -4 14 -10 17 -5 3 -10 4 -10 1z"/>
<path d="M2740 1466 c0 -9 5 -16 10 -16 6 0 10 4 10 9 0 6 -4 13 -10 16 -5 3
-10 -1 -10 -9z"/>
<path d="M2790 1461 c0 -6 4 -13 10 -16 6 -3 7 1 4 9 -7 18 -14 21 -14 7z"/>
<path d="M2445 1450 c-3 -5 1 -10 10 -10 9 0 13 5 10 10 -3 6 -8 10 -10 10 -2
0 -7 -4 -10 -10z"/>
<path d="M2840 1451 c0 -6 4 -13 10 -16 6 -3 7 1 4 9 -7 18 -14 21 -14 7z"/>
<path d="M2591 1432 c13 -10 41 -26 61 -36 36 -16 64 -50 60 -71 -1 -6 7 -11
18 -12 17 -1 20 3 18 24 -2 21 2 28 22 34 14 4 20 7 14 8 -7 1 -14 9 -16 19
-4 13 -13 18 -29 17 -13 -1 -22 -6 -19 -11 2 -5 10 -8 17 -6 18 4 16 -13 -2
-28 -11 -9 -15 -9 -15 -1 0 10 -62 54 -80 57 -3 0 -18 6 -33 12 -39 17 -44 15
-16 -6z"/>
<path d="M3861 1424 c0 -11 3 -14 6 -6 3 7 2 16 -1 19 -3 4 -6 -2 -5 -13z"/>
<path d="M2796 1421 c-4 -7 -5 -15 -2 -18 9 -9 19 4 14 18 -4 11 -6 11 -12 0z"/>
<path d="M2810 1380 c0 -5 5 -10 10 -10 6 0 10 5 10 10 0 6 -4 10 -10 10 -5 0
-10 -4 -10 -10z"/>
<path d="M3597 1349 c4 -13 8 -18 11 -10 2 7 -1 18 -6 23 -8 8 -9 4 -5 -13z"/>
<path d="M3630 1345 c0 -8 5 -15 10 -15 6 0 10 7 10 15 0 8 -4 15 -10 15 -5 0
-10 -7 -10 -15z"/>
<path d="M3671 1344 c0 -11 3 -14 6 -6 3 7 2 16 -1 19 -3 4 -6 -2 -5 -13z"/>
<path d="M4039 1192 c11 -8 11 -10 0 -14 -10 -3 -9 -6 3 -10 11 -5 15 -2 14
10 -2 9 -9 18 -17 20 -12 3 -12 2 0 -6z"/>
<path d="M4073 1185 c0 -8 4 -12 9 -9 5 3 6 10 3 15 -9 13 -12 11 -12 -6z"/>
<path d="M2905 944 c-49 -7 -93 -13 -96 -13 -3 -1 -19 -12 -35 -26 l-28 -24
57 -26 c51 -24 77 -28 220 -36 215 -12 344 -3 423 28 50 20 61 28 57 43 -11
40 -130 62 -348 65 -88 1 -200 -4 -250 -11z"/>
</g>
</svg>
