<?xml version="1.0" standalone="no"?>
<!DOCTYPE svg PUBLIC "-//W3C//DTD SVG 20010904//EN"
 "http://www.w3.org/TR/2001/REC-SVG-20010904/DTD/svg10.dtd">
<svg version="1.0" xmlns="http://www.w3.org/2000/svg"
 width="500.000000pt" height="500.000000pt" viewBox="0 0 500.000000 500.000000"
 preserveAspectRatio="xMidYMid meet">

<g transform="translate(0.000000,500.000000) scale(0.100000,-0.100000)"
fill="#000000" stroke="none">
<path d="M2630 3680 c-8 -5 -25 -10 -38 -10 -13 0 -21 -4 -17 -9 3 -5 -13 -18
-35 -27 -54 -24 -80 -68 -82 -136 -2 -63 26 -132 68 -172 26 -25 34 -27 82
-22 86 8 134 37 227 138 9 10 19 33 22 51 7 45 -45 138 -93 166 -19 12 -32 15
-28 9 6 -10 4 -10 -8 0 -21 17 -79 24 -98 12z m90 -116 c48 -9 47 -25 -2 -19
-72 10 -88 15 -88 26 0 6 12 8 30 5 17 -3 43 -9 60 -12z"/>
<path d="M1707 3407 c3 -5 -5 -7 -18 -5 -18 2 -24 -2 -23 -14 1 -10 -2 -16 -6
-13 -5 3 -11 1 -15 -5 -4 -6 -11 -8 -16 -5 -9 6 -12 -5 -10 -40 1 -13 -12 -29
-35 -44 -40 -27 -84 -105 -84 -148 0 -15 9 -43 20 -61 51 -83 97 -102 196 -82
51 11 66 19 109 65 62 65 67 72 83 116 22 63 8 171 -23 183 -8 3 -12 12 -9 21
4 10 0 15 -14 15 -12 0 -24 5 -27 10 -4 6 -11 8 -16 5 -5 -4 -9 -3 -9 2 0 4
-24 8 -54 9 -30 0 -52 -4 -49 -9z m73 -137 c-16 -40 -23 -33 -9 9 6 18 14 30
17 27 2 -3 -1 -19 -8 -36z"/>
<path d="M3328 3126 c-33 -14 -78 -55 -78 -71 0 -7 -13 -30 -28 -51 -54 -75
-64 -132 -32 -193 41 -82 124 -122 209 -101 58 14 92 40 106 79 5 17 13 30 17
28 14 -4 44 70 46 114 3 55 -17 105 -60 150 -17 19 -31 37 -30 41 1 4 -6 4
-15 1 -9 -4 -14 -2 -10 3 8 14 -92 14 -125 0z m112 -105 c0 -22 3 -48 6 -58 5
-12 4 -15 -3 -8 -15 15 -27 105 -14 105 6 0 11 -18 11 -39z"/>
<path d="M1985 3060 c-55 -22 -160 -108 -170 -141 -9 -26 20 -60 43 -52 10 4
36 23 60 44 62 54 100 69 175 69 70 0 91 12 85 52 -7 49 -103 62 -193 28z"/>
<path d="M2747 3062 c-39 -42 -10 -88 48 -79 55 9 127 -18 183 -68 51 -46 78
-55 100 -33 23 23 12 46 -48 101 -68 63 -145 97 -219 97 -34 0 -53 -5 -64 -18z"/>
<path d="M1273 2942 c-26 -18 -18 -72 12 -72 14 0 35 29 35 49 0 14 -34 31
-47 23z"/>
<path d="M1023 2891 c-24 -52 -55 -144 -60 -181 -15 -101 -15 -136 0 -148 8
-7 21 -10 30 -6 18 6 52 82 66 145 13 58 18 219 7 218 -5 0 -12 4 -15 9 -3 6
-16 -11 -28 -37z"/>
<path d="M3973 2733 c6 -72 37 -208 56 -241 6 -11 15 -4 35 30 42 73 33 122
-38 202 -27 30 -30 38 -27 69 2 10 -5 17 -15 17 -15 0 -16 -9 -11 -77z"/>
<path d="M1915 2716 c-42 -18 -93 -79 -100 -119 -12 -60 -1 -125 26 -153 13
-15 17 -24 9 -20 -8 5 -1 -3 15 -18 17 -14 36 -23 43 -21 7 3 10 0 7 -5 -9
-15 64 -5 112 15 79 32 133 124 118 198 -22 103 -136 164 -230 123z m163 -68
c17 -17 15 -43 -4 -59 -31 -26 -70 25 -44 56 15 18 32 19 48 3z"/>
<path d="M2840 2711 c-19 -10 -48 -37 -65 -60 -24 -34 -29 -52 -29 -96 0 -44
5 -62 34 -103 19 -28 37 -49 41 -46 4 2 9 -1 11 -7 2 -6 26 -13 53 -15 102
-10 197 74 198 174 2 124 -136 211 -243 153z m178 -63 c28 -28 1 -75 -37 -63
-25 8 -34 31 -21 56 12 21 40 25 58 7z"/>
<path d="M3656 2574 c-20 -19 -20 -28 -1 -44 33 -27 74 17 43 48 -16 16 -23
15 -42 -4z"/>
<path d="M1017 2535 c6 -18 5 -19 -12 -5 -12 10 -16 11 -11 2 5 -9 -2 -17 -23
-25 -33 -12 -38 -26 -20 -59 9 -16 8 -19 -2 -13 -9 6 -11 -2 -6 -36 4 -27 3
-36 -2 -24 -6 13 -8 0 -7 -42 0 -33 4 -59 8 -57 4 3 4 -11 1 -30 -3 -19 -1
-36 6 -40 6 -4 11 -19 11 -34 0 -15 7 -40 15 -56 18 -35 18 -36 0 -36 -19 0
-19 -4 2 -71 9 -30 15 -60 14 -68 -2 -9 3 -12 13 -8 10 4 16 1 16 -9 0 -8 -4
-12 -10 -9 -11 7 -13 -6 -4 -29 3 -9 10 -13 15 -10 5 3 6 -1 4 -8 -3 -8 5 -25
17 -38 13 -14 24 -36 24 -50 3 -43 16 -70 33 -68 11 2 15 -4 14 -19 -1 -11 4
-27 12 -33 17 -14 20 -40 5 -40 -5 0 2 -12 15 -26 14 -15 23 -29 21 -33 -2 -3
2 -15 10 -26 8 -10 14 -14 14 -9 0 6 -5 15 -12 22 -8 8 -8 12 -1 12 13 0 23
-23 23 -55 0 -14 7 -25 20 -28 13 -3 20 -14 20 -30 0 -26 14 -44 23 -30 2 5 2
2 0 -5 -1 -7 8 -24 22 -38 14 -14 25 -28 25 -33 0 -13 55 -56 69 -53 7 2 10
-1 6 -8 -8 -14 31 -54 44 -45 5 3 12 1 16 -5 3 -5 2 -10 -4 -10 -11 0 63 -70
124 -115 67 -51 95 -66 108 -59 7 4 9 4 5 -1 -10 -11 8 -23 138 -89 209 -106
325 -133 599 -142 283 -10 501 16 639 76 43 18 67 37 29 23 -12 -5 -15 -2 -10
10 5 13 1 17 -16 18 -18 1 -19 2 -3 6 10 3 23 0 29 -6 6 -6 24 -11 40 -11 24
0 28 3 24 20 -3 10 0 21 7 24 7 3 6 8 -4 15 -12 9 -11 11 8 11 12 0 22 -4 22
-9 0 -6 12 -8 28 -7 15 2 33 4 41 5 8 1 11 7 7 17 -4 11 0 15 17 14 38 -4 41
-1 21 21 -19 22 -19 22 3 10 35 -18 48 -14 28 9 -21 23 -4 28 19 5 19 -20 27
-19 19 2 -5 12 -3 14 7 8 10 -6 12 -4 7 9 -4 10 -7 19 -7 21 0 8 -54 -7 -76
-21 -13 -9 -46 -17 -73 -19 -28 -1 -57 -8 -65 -14 -16 -14 -59 3 -92 36 -17
17 -17 17 -11 1 3 -10 2 -18 -3 -18 -6 0 -10 3 -10 8 0 4 -12 8 -27 9 -18 1
-22 -2 -12 -7 20 -13 7 -21 -58 -37 -83 -20 -113 -23 -113 -13 0 6 -4 10 -10
10 -5 0 -10 -8 -10 -17 0 -15 -2 -16 -10 -3 -6 10 -10 11 -10 3 0 -7 -4 -13
-10 -13 -5 0 -10 7 -10 16 0 8 -4 13 -10 9 -5 -3 -7 -12 -4 -19 3 -9 -1 -13
-13 -13 -10 1 -21 11 -25 22 -4 15 -6 12 -7 -12 -1 -18 -5 -33 -11 -33 -5 0
-9 10 -7 21 1 16 -4 22 -21 24 -18 1 -22 -3 -19 -15 3 -13 -1 -16 -22 -12 -14
3 -34 13 -44 23 -20 21 -34 24 -39 8 -6 -17 -38 1 -53 31 -14 26 -13 27 11 22
14 -2 24 0 24 7 0 6 7 11 15 11 8 0 32 15 52 33 58 51 85 67 115 67 19 0 28 5
28 16 0 8 4 13 9 10 15 -10 31 19 43 78 8 43 8 60 -1 69 -6 6 -11 19 -11 29 0
46 -86 147 -149 175 -42 18 -115 19 -170 2 -54 -16 -91 -64 -96 -126 -9 -85
-13 -272 -6 -278 11 -11 10 -75 -1 -75 -6 0 -8 -3 -5 -6 4 -4 13 -1 22 6 9 7
19 9 23 5 4 -4 1 -10 -5 -12 -7 -3 -13 -11 -13 -19 0 -8 -7 -14 -15 -14 -8 0
-15 5 -15 10 0 6 -9 10 -21 10 -15 0 -19 -4 -15 -15 13 -33 16 -49 5 -28 -16
30 -32 30 -24 1 5 -20 5 -21 -5 -5 -9 13 -9 22 0 32 9 11 8 14 -8 12 -14 -1
-19 -7 -17 -24 2 -19 0 -21 -12 -11 -8 7 -28 11 -44 10 -25 -2 -32 3 -43 29
-12 28 -14 29 -18 11 -3 -12 -1 -23 5 -25 14 -4 18 -67 5 -67 -6 0 -8 7 -4 15
5 14 2 14 -24 0 -43 -22 -48 -18 -12 8 l31 24 -32 31 c-18 17 -45 33 -62 37
-29 6 -29 6 -11 -9 11 -9 25 -16 31 -16 6 0 20 -10 31 -23 21 -24 17 -36 -19
-50 -11 -4 -15 -12 -11 -19 4 -7 -2 -4 -14 6 -24 21 -31 46 -7 26 12 -10 18
-10 30 0 17 14 9 34 -10 26 -8 -3 -16 0 -19 7 -3 9 -7 9 -13 1 -14 -18 -43
-12 -43 9 0 14 5 17 18 12 13 -5 12 -2 -5 14 -12 11 -24 29 -28 41 -3 11 -10
20 -15 20 -5 0 -2 -12 6 -27 15 -30 19 -57 5 -34 -8 12 -12 12 -25 -2 -9 -9
-23 -14 -31 -11 -18 7 -19 20 -3 30 17 11 -20 34 -56 34 -24 0 -27 3 -16 10
11 7 6 10 -20 10 -33 1 -34 1 -16 15 19 14 18 15 -12 15 -24 0 -32 5 -32 18 0
10 -3 13 -8 6 -13 -20 -79 -4 -67 17 4 5 -3 9 -14 9 -23 0 -28 15 -8 24 13 6
-46 -2 -77 -11 -12 -3 -16 -1 -12 6 4 6 15 11 24 11 12 1 10 5 -8 15 -23 13
-23 14 -5 15 17 1 16 4 -7 14 -15 6 -35 22 -46 34 -11 12 -26 22 -35 22 -9 0
-19 5 -22 10 -3 6 -1 10 5 10 18 0 0 20 -26 30 -13 5 -24 16 -24 25 0 8 -5 15
-11 15 -5 0 -8 4 -4 9 3 5 1 13 -5 16 -6 4 -8 15 -5 25 7 22 -40 74 -58 64 -8
-5 -8 -3 1 7 19 20 15 27 -20 35 -32 7 -33 8 -8 15 l25 7 -23 7 c-15 5 -25 18
-29 36 -3 16 -10 29 -15 29 -6 0 -7 7 -4 16 4 10 -2 23 -16 33 l-21 18 21 21
c12 12 22 26 22 31 0 10 122 93 153 104 9 3 17 11 17 17 0 5 7 10 15 10 8 0
15 4 15 9 0 5 9 13 20 16 27 9 41 37 46 96 4 44 -1 64 -34 133 -3 5 9 0 25
-12 17 -12 58 -28 92 -36 121 -28 261 31 261 111 0 45 -22 86 -62 115 -29 20
-45 23 -123 23 -68 0 -99 -5 -128 -19 -45 -22 -87 -79 -87 -117 l0 -26 -35 33
c-20 18 -52 41 -71 50 -36 17 -142 23 -153 8 -11 -16 -52 -35 -61 -29 -6 4
-10 0 -10 -9 0 -8 -11 -27 -23 -43 -31 -37 -41 -73 -20 -73 12 0 13 -3 4 -13
-6 -8 -8 -17 -4 -20 10 -11 13 -127 3 -127 -6 0 -10 -11 -10 -25 0 -14 -4 -25
-10 -25 -5 0 -10 9 -10 20 0 11 -6 20 -12 20 -7 0 -14 11 -14 25 -1 14 3 25 8
25 7 0 7 4 0 13 -10 13 -10 52 1 63 14 14 7 44 -10 44 -15 0 -14 4 6 19 23 18
23 18 2 24 -31 8 -25 27 9 27 17 0 30 4 30 8 0 4 -17 6 -37 4 -35 -4 -37 -3
-23 13 13 15 12 19 -3 30 -9 7 -17 18 -17 26 0 11 2 11 10 -1 8 -13 10 -13 10
1 0 9 -5 30 -11 48 -9 27 -8 35 6 51 11 12 13 20 6 20 -6 0 -10 10 -9 23 2 12
0 22 -4 22 -4 0 -14 9 -23 20 l-15 20 7 -20z m373 -985 c0 -10 -26 -20 -34
-13 -11 12 -6 19 14 20 11 1 20 -2 20 -7z m-165 -50 c3 -5 1 -10 -4 -10 -6 0
-11 5 -11 10 0 6 2 10 4 10 3 0 8 -4 11 -10z m1330 -68 c-8 -8 -25 10 -19 20
4 6 9 5 15 -3 4 -7 6 -15 4 -17z m-1055 -222 c0 -5 -5 -10 -11 -10 -5 0 -7 5
-4 10 3 6 8 10 11 10 2 0 4 -4 4 -10z m5 -30 c3 -5 1 -10 -4 -10 -6 0 -11 5
-11 10 0 6 2 10 4 10 3 0 8 -4 11 -10z m905 -120 c0 -5 -5 -10 -11 -10 -5 0
-7 5 -4 10 3 6 8 10 11 10 2 0 4 -4 4 -10z m80 -26 c0 -12 -2 -12 -14 -2 -8 7
-12 16 -9 21 7 11 23 -2 23 -19z m-305 -54 c3 -5 1 -10 -4 -10 -6 0 -11 5 -11
10 0 6 2 10 4 10 3 0 8 -4 11 -10z m565 -50 c0 -5 -5 -10 -11 -10 -5 0 -7 5
-4 10 3 6 8 10 11 10 2 0 4 -4 4 -10z"/>
<path d="M3115 2419 c-16 -4 -45 -21 -63 -36 -27 -23 -35 -38 -39 -76 -5 -43
-3 -51 22 -77 77 -80 249 -79 332 2 90 87 -7 200 -168 197 -30 0 -67 -5 -84
-10z"/>
<path d="M2240 2234 c0 -19 15 -42 48 -74 65 -66 136 -84 227 -59 78 21 167
121 137 151 -9 9 -24 -2 -60 -39 -49 -51 -95 -73 -152 -73 -42 1 -104 35 -142
79 -40 47 -58 52 -58 15z"/>
<path d="M3515 2160 c-56 -14 -83 -29 -115 -62 -48 -50 -56 -74 -66 -193 -6
-69 -5 -71 33 -124 89 -125 179 -117 273 25 22 32 40 56 40 51 0 -4 12 0 26 9
16 11 24 24 21 35 -3 10 1 20 8 23 9 3 11 16 5 48 -11 54 -37 118 -49 118 -6
0 -13 9 -16 20 -3 11 -11 20 -17 20 -6 0 -19 6 -27 14 -21 18 -78 26 -116 16z
m69 -125 c-4 -8 -8 -15 -10 -15 -2 0 -4 7 -4 15 0 8 4 15 10 15 5 0 7 -7 4
-15z"/>
<path d="M2965 1960 c-33 -4 -69 -10 -80 -15 -28 -11 -76 -65 -70 -76 4 -5 1
-9 -5 -9 -7 0 -10 -7 -7 -15 4 -8 2 -17 -2 -19 -14 -9 -21 -110 -11 -151 25
-98 36 -122 69 -157 59 -63 77 -57 210 74 104 101 115 116 119 153 2 22 5 42
7 44 3 2 -4 15 -15 29 -11 13 -18 28 -15 32 8 13 -60 77 -102 97 -30 15 -51
17 -98 13z m55 -174 c0 -11 -19 -15 -25 -6 -3 5 1 10 9 10 9 0 16 -2 16 -4z"/>
<path d="M3966 1852 c-33 -66 -66 -161 -66 -191 0 -47 90 108 109 187 5 20 12
45 16 55 5 12 2 17 -9 17 -9 0 -29 -27 -50 -68z"/>
<path d="M1640 1843 c-41 -14 -118 -68 -118 -82 0 -9 -3 -34 -6 -56 -16 -108
0 -212 38 -251 9 -8 21 -23 28 -32 37 -49 118 -58 179 -20 13 9 40 19 60 22
40 7 89 46 89 70 0 8 3 17 8 19 8 6 7 82 -1 140 -14 88 -75 169 -141 186 -46
11 -110 13 -136 4z"/>
<path d="M1221 1454 c0 -11 3 -14 6 -6 3 7 2 16 -1 19 -3 4 -6 -2 -5 -13z"/>
<path d="M3201 1361 c-41 -22 -91 -77 -91 -102 0 -21 43 -65 48 -49 3 7 9 7
19 -1 9 -8 46 -12 101 -11 77 1 88 3 104 24 20 27 22 44 8 84 -23 63 -120 92
-189 55z"/>
<path d="M3625 1279 c4 -10 0 -19 -9 -22 -9 -4 -16 -11 -16 -17 0 -6 10 -2 22
10 18 16 19 23 9 33 -10 9 -11 9 -6 -4z"/>
<path d="M3428 1213 c23 -9 12 -23 -20 -23 -31 -1 -32 -1 -14 -15 17 -13 18
-15 3 -15 -21 0 -21 -18 -2 -44 12 -16 18 -17 27 -8 7 7 8 12 3 12 -6 0 7 11
28 24 l37 23 -24 26 c-14 15 -31 27 -38 26 -10 0 -10 -2 0 -6z"/>
<path d="M3531 1204 c0 -11 3 -14 6 -6 3 7 2 16 -1 19 -3 4 -6 -2 -5 -13z"/>
<path d="M1921 1188 c-1 -21 19 -68 31 -68 13 0 9 16 -6 30 -8 6 -17 21 -19
33 -3 15 -5 16 -6 5z"/>
<path d="M1991 1184 c0 -11 3 -14 6 -6 3 7 2 16 -1 19 -3 4 -6 -2 -5 -13z"/>
<path d="M2136 1145 c4 -8 10 -15 15 -15 4 0 6 7 3 15 -4 8 -10 15 -15 15 -4
0 -6 -7 -3 -15z"/>
<path d="M2065 1140 c3 -5 8 -10 11 -10 2 0 4 5 4 10 0 6 -5 10 -11 10 -5 0
-7 -4 -4 -10z"/>
<path d="M3460 1140 c-8 -5 -10 -10 -5 -10 6 0 17 5 25 10 8 5 11 10 5 10 -5
0 -17 -5 -25 -10z"/>
<path d="M2126 1111 c-4 -7 -5 -15 -2 -18 9 -9 19 4 14 18 -4 11 -6 11 -12 0z"/>
<path d="M2310 1109 c0 -5 5 -7 10 -4 6 3 10 8 10 11 0 2 -4 4 -10 4 -5 0 -10
-5 -10 -11z"/>
<path d="M2185 1100 c3 -5 8 -10 11 -10 2 0 4 5 4 10 0 6 -5 10 -11 10 -5 0
-7 -4 -4 -10z"/>
<path d="M2247 1099 c7 -7 15 -10 18 -7 3 3 -2 9 -12 12 -14 6 -15 5 -6 -5z"/>
<path d="M2220 1081 c0 -5 7 -11 14 -14 10 -4 13 -1 9 9 -6 15 -23 19 -23 5z"/>
</g>
</svg>
